# xmcd
#
# Track frame offsets:
#	150
#	14322
#	28125
#
# Disc length: 563 seconds
#
# Revision: 0
# Processed by: cddbd v1.4b42PL1 Copyright (c) Steve Scherf et al.
# Submitted via: audiograbber 1.80
#
DISCID=1b023103
DTITLE=Linda Feller - Tiefer als sonst (Maxi-CD)
DYEAR=1900
DGENRE=
TTITLE0=Tiefer als sonst
TTITLE1=Der Himmel hat keine Engel mehr
TTITLE2=Tiefer als sonst (Karaoke Version)
EXTD=
EXTT0=
EXTT1=
EXTT2=
PLAYORDER=
